<svg width="1200" height="380" viewBox="0 0 1200 380" fill="none" xmlns="http://www.w3.org/2000/svg">
  <defs>
    <linearGradient id="bg" x1="0" y1="0" x2="1200" y2="380" gradientUnits="userSpaceOnUse">
      <stop stop-color="#050816"/>
      <stop offset="0.52" stop-color="#0B1229"/>
      <stop offset="1" stop-color="#1A1036"/>
    </linearGradient>
    <linearGradient id="accent" x1="80" y1="0" x2="1120" y2="0" gradientUnits="userSpaceOnUse">
      <stop stop-color="#22C55E"/>
      <stop offset="0.45" stop-color="#06B6D4"/>
      <stop offset="1" stop-color="#A855F7"/>
    </linearGradient>
    <radialGradient id="pulse" cx="0" cy="0" r="1" gradientUnits="userSpaceOnUse" gradientTransform="translate(936 184) rotate(90) scale(180 250)">
      <stop stop-color="#22C55E" stop-opacity="0.23"/>
      <stop offset="1" stop-color="#22C55E" stop-opacity="0"/>
    </radialGradient>
    <filter id="softGlow" x="-20%" y="-20%" width="140%" height="140%">
      <feGaussianBlur stdDeviation="8" result="blur"/>
      <feMerge>
        <feMergeNode in="blur"/>
        <feMergeNode in="SourceGraphic"/>
      </feMerge>
    </filter>
  </defs>

  <rect width="1200" height="380" rx="34" fill="url(#bg)"/>
  <rect width="1200" height="380" rx="34" fill="url(#pulse)"/>

  <g opacity="0.14">
    <path d="M0 76H1200" stroke="#FFFFFF"/>
    <path d="M0 152H1200" stroke="#FFFFFF"/>
    <path d="M0 228H1200" stroke="#FFFFFF"/>
    <path d="M0 304H1200" stroke="#FFFFFF"/>
    <path d="M150 0V380" stroke="#FFFFFF"/>
    <path d="M380 0V380" stroke="#FFFFFF"/>
    <path d="M640 0V380" stroke="#FFFFFF"/>
    <path d="M890 0V380" stroke="#FFFFFF"/>
    <path d="M1090 0V380" stroke="#FFFFFF"/>
  </g>

  <rect x="56" y="44" width="1088" height="292" rx="28" fill="#050713" fill-opacity="0.84" stroke="#FFFFFF" stroke-opacity="0.14"/>
  <rect x="56" y="44" width="1088" height="46" rx="28" fill="#101827"/>
  <circle cx="88" cy="67" r="7" fill="#EF4444"/>
  <circle cx="114" cy="67" r="7" fill="#F59E0B"/>
  <circle cx="140" cy="67" r="7" fill="#22C55E"/>
  <text x="172" y="74" fill="#94A3B8" font-family="Consolas, Monaco, monospace" font-size="18">~/CarvalhoBrennin/profile-os</text>

  <text x="88" y="135" fill="#22C55E" font-family="Consolas, Monaco, monospace" font-size="20">$ boot brennin.exe --builder local-first --ship useful</text>
  <text x="88" y="195" fill="#F8FAFC" font-family="Inter, Segoe UI, Arial, sans-serif" font-size="62" font-weight="850">Brennin</text>
  <text x="88" y="238" fill="#CBD5E1" font-family="Inter, Segoe UI, Arial, sans-serif" font-size="25">full-stack builder · desktop tools · automação · church tech · game labs</text>
  <text x="88" y="277" fill="#94A3B8" font-family="Consolas, Monaco, monospace" font-size="18">problema real -&gt; protótipo -&gt; ferramenta usável -&gt; teste no mundo real</text>
  <rect x="88" y="302" width="560" height="10" rx="5" fill="url(#accent)" filter="url(#softGlow)"/>

  <g>
    <rect x="790" y="118" width="300" height="178" rx="20" fill="#0B1024" stroke="#22C55E" stroke-opacity="0.42"/>
    <text x="820" y="152" fill="#06B6D4" font-family="Consolas, Monaco, monospace" font-size="18">BUILD RADAR</text>
    <text x="820" y="187" fill="#E5E7EB" font-family="Consolas, Monaco, monospace" font-size="16">horafolio</text>
    <text x="950" y="187" fill="#22C55E" font-family="Consolas, Monaco, monospace" font-size="16">OCR -&gt; Excel</text>
    <text x="820" y="218" fill="#E5E7EB" font-family="Consolas, Monaco, monospace" font-size="16">amigos-db</text>
    <text x="950" y="218" fill="#22C55E" font-family="Consolas, Monaco, monospace" font-size="16">public</text>
    <text x="820" y="249" fill="#E5E7EB" font-family="Consolas, Monaco, monospace" font-size="16">church tools</text>
    <text x="950" y="249" fill="#22C55E" font-family="Consolas, Monaco, monospace" font-size="16">offline</text>
    <text x="820" y="280" fill="#E5E7EB" font-family="Consolas, Monaco, monospace" font-size="16">game labs</text>
    <text x="950" y="280" fill="#22C55E" font-family="Consolas, Monaco, monospace" font-size="16">mods + co-op</text>
  </g>
</svg>
